<?xml version="1.0" encoding="utf-8"?>
<!-- Generator: Adobe Illustrator 21.1.0, SVG Export Plug-In . SVG Version: 6.00 Build 0)  -->
<svg version="1.1" id="Layer_1" xmlns="http://www.w3.org/2000/svg" xmlns:xlink="http://www.w3.org/1999/xlink" x="0px" y="0px"
	 viewBox="0 0 576 296" style="enable-background:new 0 0 576 296;" xml:space="preserve">
<style type="text/css">
	.st0{fill:#2E4272;}
	.st1{fill:#001035;}
	.st2{fill:#091F53;}
	.st3{fill:#657290;}
	.st4{fill:#B1B1B1;}
	.st5{fill:#051E4F;}
	.st6{fill:#485770;}
	.st7{fill:#7F8CA5;}
	.st8{fill:#FFFFFF;stroke:#231F20;stroke-width:1.3915;stroke-miterlimit:10;}
	.st9{fill:#001445;}
	.st10{fill:#1B4496;}
	.st11{fill:#3366CC;}
	.st12{fill:#EF622B;}
	.st13{fill:#000153;}
	.st14{fill:#003E96;}
	.st15{fill:#216CC7;}
	.st16{fill:#FFFFFF;stroke:#231F20;stroke-width:0.5;stroke-miterlimit:10;}
	.st17{fill:#99DE31;}
	.st18{fill:#FFFFFF;}
	.st19{fill:#231F20;}
</style>
<g>
	<g>
		<path class="st17" d="M59.8,268.4c-2.2,0-4.3-1-5.7-2.8c-11.5-15.1-21.3-32.5-29.4-52.3c-8.6-21-12.9-42.8-12.9-65.4
			c0-19.9,3.2-38.9,9.6-57.1c7.2-20.1,18.1-40.2,32.7-60.2c1.3-1.8,3.5-2.9,5.8-2.9H60c5.5,0,9,5.9,6.3,10.7
			C59.5,50.2,54.9,59,52.4,64.8c-5.1,11.5-9.1,23.6-12,36.1C36.8,116.5,35,132.2,35,148c0,36.6,10.3,73.1,31,109.6
			C68.7,262.4,65.3,268.4,59.8,268.4L59.8,268.4z"/>
		<path class="st17" d="M331.4,268.4L331.4,268.4c-5.5,0-9-6-6.2-10.8c20.7-36.5,31.1-73.1,31.1-109.6c0-15.7-1.8-31.3-5.4-46.7
			c-2.8-12.5-6.8-24.6-11.9-36.1c-2.5-5.9-7.2-14.8-14-26.9c-2.7-4.8,0.8-10.7,6.3-10.7h0.1c2.3,0,4.4,1.1,5.8,2.9
			c14.6,20,25.5,40.1,32.7,60.2c6.4,18.2,9.6,37.2,9.6,57.1c0,22.6-4.3,44.3-13,65.4c-8.1,19.8-17.9,37.3-29.3,52.3
			C335.8,267.4,333.6,268.4,331.4,268.4z"/>
	</g>
	<g>
		<path class="st13" d="M118.9,209.4v9H70.2v-9c0-1.9,1.3-3.6,3.1-4c1.9-0.4,12.1-2.3,12.1-2.3v-75.5c0,0-10.2-1.9-12.1-2.3
			c-1.9-0.4-3.1-2.1-3.1-4v-8.8h33.7v90.5c0,0,10,1.9,11.9,2.3C117.7,205.8,118.9,207.5,118.9,209.4z M82.5,84.4c-0.8-1.7-1-3.3-1-5
			c0-1.7,0.2-3.6,1-5.2c0.8-1.7,1.7-3.1,2.9-4.4c1.3-1.3,2.5-2.1,4.2-2.9c1.7-0.8,3.3-1,5-1s3.3,0.2,5,1c1.7,0.8,2.9,1.7,4.2,2.9
			c1.3,1.3,2.1,2.7,2.9,4.4c0.8,1.7,1.3,3.6,1.3,5.2c0,1.7-0.4,3.3-1.3,5c-0.8,1.7-1.7,2.9-2.9,4.2c-1.3,1.3-2.5,2.1-4.2,2.9
			c-1.7,0.8-3.3,1-5,1s-3.3-0.2-5-1c-1.7-0.8-2.9-1.7-4.2-2.9C84.2,87.3,83.4,86,82.5,84.4z"/>
		<path class="st13" d="M163.9,127.7c10.5-11.3,22.2-16.9,35.1-16.9c11.3,0,20.1,3.6,26.3,11.1c5.9,7.1,9,16.9,9,29.1v52.1
			c6.7,1.3,10.7,2.1,11.9,2.5c2.1,0.4,3.3,1.9,3.3,4v9h-33.9v-67.3c0-16.7-7.3-25.5-22.2-25.5c-10.5,0-20.1,5-28.8,14.8v62.7
			c0.4,0,4.6,0.8,12.1,2.5c2.1,0.4,3.1,1.9,3.1,4v8.8h-48.7v-8.8c0-2.1,0.8-3.6,2.9-4l12.1-2.3v-75.5c-6.7-1.3-10.9-2.1-12.1-2.5
			c-2.1-0.4-2.9-1.9-2.9-4v-8.8h15.1h10.9c2.5,0,4.2,1.3,5,3.8l1.7,11.5V127.7z"/>
		<path class="st13" d="M276.8,212.9c-4.6-4.6-6.7-11.3-6.7-20.1v-64.8h-12.8c-1.3,0-2.1-0.2-2.9-0.8c-0.8-0.6-1-1.9-1-3.1v-7.3
			l17.4-2.3l4.2-32.8c0-1,0.4-1.9,1.3-2.5c0.8-0.6,1.7-0.8,2.9-0.8h9.4v36.4h30.3v13.6h-30.3v63.6c0,4.6,1,7.9,3.1,10
			c2.1,2.1,5.2,3.1,8.6,3.1c2.1,0,3.8-0.4,5.2-0.8c1.5-0.4,2.7-1,3.8-1.7c1-0.6,1.7-1.3,2.5-1.7c0.8-0.4,1.7-0.8,2.1-0.8
			c0.8,0,1.7,0.4,2.5,1.7l5.4,8.8c-3.3,2.9-7.1,5.4-11.7,7.1c-4.6,1.7-9.2,2.5-14,2.5C287.6,220.1,281.4,217.5,276.8,212.9z"/>
	</g>
	<g>
		<path class="st15" d="M453.2,209.4v9h-48.7v-9c0-1.9,1.3-3.6,3.1-4c1.9-0.4,12.1-2.3,12.1-2.3v-75.5c0,0-10.2-1.9-12.1-2.3
			c-1.9-0.4-3.1-2.1-3.1-4v-8.8h33.7v90.5c0,0,10,1.9,11.9,2.3C451.9,205.8,453.2,207.5,453.2,209.4z M416.8,84.4
			c-0.8-1.7-1-3.3-1-5c0-1.7,0.2-3.6,1-5.2c0.8-1.7,1.7-3.1,2.9-4.4c1.3-1.3,2.5-2.1,4.2-2.9c1.7-0.8,3.3-1,5-1s3.3,0.2,5,1
			c1.7,0.8,2.9,1.7,4.2,2.9c1.3,1.3,2.1,2.7,2.9,4.4c0.8,1.7,1.3,3.6,1.3,5.2c0,1.7-0.4,3.3-1.3,5c-0.8,1.7-1.7,2.9-2.9,4.2
			c-1.3,1.3-2.5,2.1-4.2,2.9c-1.7,0.8-3.3,1-5,1s-3.3-0.2-5-1c-1.7-0.8-2.9-1.7-4.2-2.9C418.5,87.3,417.7,86,416.8,84.4z"/>
		<path class="st15" d="M534.5,114.7c6.3,2.5,11.7,6.3,16.1,10.9c4.4,4.6,7.7,10.5,10,17.1c2.3,6.7,3.6,14.2,3.6,22.6
			c0,8.4-1.3,15.9-3.6,22.6c-2.3,6.7-5.6,12.5-10,17.1c-4.4,4.6-9.8,8.4-16.1,10.9c-6.3,2.5-13.2,3.8-20.9,3.8
			c-7.7,0-14.6-1.3-20.9-3.8c-6.3-2.5-11.7-6.3-16.1-10.9c-4.4-4.6-7.7-10.5-10.2-17.1c-2.5-6.7-3.3-14.2-3.3-22.6
			c0-8.4,0.8-15.9,3.3-22.6c2.5-6.7,5.9-12.5,10.2-17.1c4.4-4.6,9.8-8.4,16.1-10.9c6.3-2.5,13.2-3.8,20.9-3.8
			C521.4,110.9,528.3,112.2,534.5,114.7z M537,195c5-7.1,7.7-16.9,7.7-29.5c0-12.5-2.7-22.4-7.7-29.5c-5-7.1-13-10.5-23.4-10.5
			c-5.4,0-10,0.8-13.8,2.5c-3.8,1.7-7.1,4.6-9.6,7.9c-2.5,3.3-4.6,7.5-5.9,12.5c-1.3,5-2.1,10.9-2.1,17.1c0,6.3,0.8,11.7,2.1,16.7
			c1.3,5,3.3,9.2,5.9,12.5c2.5,3.3,5.9,5.9,9.6,7.5c3.8,1.7,8.4,2.9,13.8,2.9C524.1,205.4,532,202.1,537,195z"/>
	</g>
</g>
</svg>
